<?xml version="1.0" standalone="no"?>
<!DOCTYPE svg PUBLIC "-//W3C//DTD SVG 20010904//EN"
 "http://www.w3.org/TR/2001/REC-SVG-20010904/DTD/svg10.dtd">
<svg version="1.0" xmlns="http://www.w3.org/2000/svg"
 width="1248.000000pt" height="1248.000000pt" viewBox="0 0 1248.000000 1248.000000"
 preserveAspectRatio="xMidYMid meet">
<metadata>
Created by potrace 1.11, written by Peter Selinger 2001-2013
</metadata>
<g transform="translate(0.000000,1248.000000) scale(0.100000,-0.100000)"
fill="#000000" stroke="none">
<path d="M2957 12283 c-8 -268 -48 -510 -137 -836 -142 -518 -353 -1057 -915
-2337 -697 -1588 -989 -2420 -1135 -3225 -58 -321 -74 -499 -74 -830 0 -321
11 -467 60 -732 218 -1192 991 -2291 2164 -3074 163 -109 349 -219 370 -219
22 0 40 20 40 43 0 11 -51 180 -114 376 -63 196 -126 396 -141 446 -33 108
-83 211 -169 342 -158 242 -321 558 -429 833 -140 355 -215 655 -263 1050 -22
178 -25 635 -6 810 110 990 512 1934 1300 3050 193 272 479 646 489 636 6 -5
-14 -42 -166 -316 -467 -839 -742 -1621 -831 -2370 -13 -113 -26 -561 -16
-586 12 -30 30 1 85 142 243 622 761 1267 1476 1839 583 466 1335 881 2415
1330 212 88 240 109 240 172 0 36 -10 57 -64 137 -422 622 -1129 1383 -1901
2047 -495 424 -1059 857 -1715 1313 l-224 156 -167 0 -166 0 -6 -197z"/>
</g>
</svg>
